<svg xmlns="http://www.w3.org/2000/svg" xmlns:xlink="http://www.w3.org/1999/xlink" width="227.217" height="156.226" viewBox="0 0 227.217 156.226">
  <defs>
    <linearGradient id="linear-gradient" x1="0.5" x2="0.5" y2="1" gradientUnits="objectBoundingBox">
      <stop offset="0" stop-color="#6a68cf"/>
      <stop offset="1" stop-color="#d39bfa"/>
    </linearGradient>
    <linearGradient id="linear-gradient-2" x1="-1.414" y1="-0.717" x2="0.797" y2="0.884" xlink:href="#linear-gradient"/>
    <linearGradient id="linear-gradient-3" x1="-0.966" y1="-0.759" x2="0.845" y2="0.695" xlink:href="#linear-gradient"/>
    <linearGradient id="linear-gradient-6" x1="-0.311" y1="-0.378" x2="0.927" xlink:href="#linear-gradient"/>
    <linearGradient id="linear-gradient-7" x1="0.048" y1="-0.205" x2="0.681" y2="0.5" xlink:href="#linear-gradient"/>
  </defs>
  <g id="_24-7-open-icon" data-name="24-7-open-icon" transform="translate(0)">
    <path id="Path_1255" data-name="Path 1255" d="M444.056,229.079a2.972,2.972,0,0,0-2.308-1.1h-13.92a21.392,21.392,0,0,0-5.875-10.858,20.939,20.939,0,0,0-22.03-4.661h0l-.419.162a21.159,21.159,0,0,0-5.54,3.3l-1.789,1.415v-17.1h-1a5.656,5.656,0,0,0-2.382.953,5.787,5.787,0,0,0-1.905,2.382c-.4,1.179-.6,12.7-.517,21.72v1.191H386.3c0,.238.019.786.043,1.505H374.766l-1.388-6.935a2.979,2.979,0,0,0-2.92-2.394H358.7a2.977,2.977,0,1,0,0,5.954h9.322l7.671,38.344h0a.636.636,0,0,0,.036.148c.012.048.019.086.031.126a1.336,1.336,0,0,0,.045.126c.017.04.031.1.05.141s.031.069.048.1.048.1.074.152.031.057.048.086a1.725,1.725,0,0,0,.1.157l.048.074c.038.052.076.1.117.155l.05.062c.045.052.09.1.138.15l.048.052c.052.052.109.1.164.15l.041.033a2.437,2.437,0,0,0,.217.162l.064.04c.052.036.107.069.162.1l.107.052.136.067.117.048a1.411,1.411,0,0,0,.141.05l.117.038.157.041.107.024c.064.012.131.021.2.029l.076.012c.1,0,.19.014.286.014h56.632a2.977,2.977,0,0,0,2.915-2.382l6.511-31.418A2.979,2.979,0,0,0,444.056,229.079ZM392.5,229.5c.067-.4.148-.793.238-1.191a14.693,14.693,0,0,1,.586-1.839c.079-.2.162-.4.252-.6s.176-.4.269-.586a13.9,13.9,0,0,1,5.2-5.861c.1-.067.2-.129.31-.193s.162-.1.238-.143l.238-.138.35-.191a21.238,21.238,0,0,1,1.924-.919,15.672,15.672,0,0,1,11.82.457,15.161,15.161,0,0,1,7.035,6.988c.191.388.367.784.522,1.191a15,15,0,0,1,.588,1.839q.15.586.252,1.191a15.37,15.37,0,0,1-.445,7.116l-.064.2a15.48,15.48,0,0,1-1.634,3.5c-1,1.579-1.124,1.667-1.541.912a14.525,14.525,0,0,0-1.708-2.12l-1.277-1.319v-.014l.953-1.081a6.1,6.1,0,0,0,.891-1.3v-.012c.541-1.136.393-2.272-.4-4.182a10.552,10.552,0,0,0-1.779-2.891,7.723,7.723,0,0,0-7.121-2.858c-.915.152-1.229.1-1.408-.169a.438.438,0,0,1-.05-.079c-.183-.36-.414-.376-1.207-.21a2.715,2.715,0,0,0-.3.088c-.155.052-.333.121-.524.2-.119.05-.238.1-.367.16h0l-.09-.16-.817-1.412a.714.714,0,0,0,.112-.226.821.821,0,0,0,.031-.217.793.793,0,0,0-.183-.5.781.781,0,1,0-.6,1.281h.05l.624,1.079.057.1.2.355c-.4.2-.75.388-.934.5-.581.379-.976.807-.776,1.274.1.238-.038.526-.276.8a2.826,2.826,0,0,1-.283.274l-.045.033c-.126.09-.238.183-.364.286l-.124.107c-.04.036-.081.071-.121.112-2.17,2.084-2.746,6.116-1.191,9.484,1.248,2.7,2.705,3.787,4.911,3.572l1.748-.124-.041,1.5a6.354,6.354,0,0,0,.455,2.382c.331.622.476.981.333,1.153s-.715.15-1.829-.029A15.251,15.251,0,0,1,392.5,229.5Zm9.991,8.529c-.791-.083-1-.417-1.084-1.874a3.858,3.858,0,0,1,.9-3.113l.114-.121.017-.017a11.349,11.349,0,0,1,3.218-2.036c1.286-.607,2.27-1.06,3.06-1.367,1.993-.786,2.76-.684,4.106,0q.079.036.157.079c1.374.714,2.205,1.955,1.872,2.829a.192.192,0,0,1-.026.048C414.15,233.409,403.6,238.191,402.495,238.029Zm8.214-1.1a1.567,1.567,0,0,1-.826,1.157,1.872,1.872,0,0,1-1.231.057c-.086-.021-.176-.045-.269-.076Zm22.1,22.463H381.051l-5.094-25.462h10.662c.052.91.1,1.605.145,1.846a21.735,21.735,0,0,0,5.909,11.234,20.941,20.941,0,0,0,34.624-8.321,19.09,19.09,0,0,0,.817-3.5c.057-.419.1-.843.131-1.265h9.846Z" transform="translate(-295.463 -200.24)" fill="url(#linear-gradient)"/>
    <path id="Path_1256" data-name="Path 1256" d="M448.826,500.08a9.5,9.5,0,1,0,9.5,9.507A9.5,9.5,0,0,0,448.826,500.08Zm0,13.035a3.541,3.541,0,1,1,3.541-3.527,3.541,3.541,0,0,1-3.541,3.527Z" transform="translate(-359.161 -428.67)" fill="url(#linear-gradient-2)"/>
    <path id="Path_1257" data-name="Path 1257" d="M639.835,500.08a9.5,9.5,0,1,0,9.5,9.507A9.5,9.5,0,0,0,639.835,500.08Zm0,13.035a3.541,3.541,0,1,1,3.541-3.527,3.541,3.541,0,0,1-3.541,3.527Z" transform="translate(-504.679 -428.67)" fill="url(#linear-gradient-3)"/>
    <path id="Path_1258" data-name="Path 1258" d="M560.471,338.82a1.136,1.136,0,1,0,1.131,1.136A1.136,1.136,0,0,0,560.471,338.82Zm.969.714a.476.476,0,0,1-.876.217.451.451,0,0,1-.055-.217.46.46,0,0,1,.1-.286.577.577,0,0,1,.064-.069.466.466,0,0,1,.769.352Z" transform="translate(-450.581 -305.816)" fill="url(#linear-gradient)"/>
    <path id="Path_1259" data-name="Path 1259" d="M577.975,330.34h-.021a1.134,1.134,0,1,0,.438,2.179h0a1.134,1.134,0,0,0-.419-2.177Zm.953.714a.476.476,0,1,1-.476-.476.476.476,0,0,1,.476.476Z" transform="translate(-463.906 -299.355)" fill="url(#linear-gradient)"/>
    <path id="Path_1260" data-name="Path 1260" d="M301.927,677.071H130.711a28,28,0,1,1,0-56H301.927a28,28,0,0,1,0,56ZM130.711,627.024a22.047,22.047,0,1,0,0,44.093H301.927a22.047,22.047,0,0,0,0-44.093Z" transform="translate(-102.71 -520.845)" fill="url(#linear-gradient-6)"/>
    <path id="Union_4" data-name="Union 4" d="M-3937.773-392.192l9-25.7h4.609l-9,25.7Zm-119.9-3.637a9.765,9.765,0,0,1-5.22-8.643,9.765,9.765,0,0,1,5.22-8.643,12.185,12.185,0,0,1,10.88,0,9.765,9.765,0,0,1,5.22,8.643,9.765,9.765,0,0,1-5.22,8.643,12.18,12.18,0,0,1-5.44,1.282A12.18,12.18,0,0,1-4057.671-395.829Zm2.817-13.416a4.911,4.911,0,0,0-1.855,1.924,6.3,6.3,0,0,0,0,5.7,4.879,4.879,0,0,0,1.855,1.922,5.352,5.352,0,0,0,5.24,0,4.881,4.881,0,0,0,1.853-1.922,6.3,6.3,0,0,0,0-5.7,4.9,4.9,0,0,0-1.853-1.924,5.37,5.37,0,0,0-2.62-.682A5.37,5.37,0,0,0-4054.854-409.244Zm16.065,14.34v-19.11h8.723a10.865,10.865,0,0,1,4.5.865,6.663,6.663,0,0,1,2.935,2.448,6.713,6.713,0,0,1,1.045,3.744,6.429,6.429,0,0,1-3.98,6.191,10.9,10.9,0,0,1-4.5.861h-3.334v5Zm5.408-9.268h3a3.789,3.789,0,0,0,2.507-.724,2.553,2.553,0,0,0,.846-2.058,2.578,2.578,0,0,0-.846-2.072,3.729,3.729,0,0,0-2.507-.736h-3Zm61.552,9.248v-3.382l7.145-6.669a6.823,6.823,0,0,0,1.391-1.667,3.054,3.054,0,0,0,.353-1.4,1.768,1.768,0,0,0-.626-1.445,2.808,2.808,0,0,0-1.827-.52,4.054,4.054,0,0,0-1.951.477,3.888,3.888,0,0,0-1.457,1.377l-4.008-2.237a7.857,7.857,0,0,1,3.136-2.917,10.082,10.082,0,0,1,4.763-1.062,9.857,9.857,0,0,1,3.858.715,5.986,5.986,0,0,1,2.62,2.032,5.17,5.17,0,0,1,.941,3.067,6.664,6.664,0,0,1-.667,2.931,11.357,11.357,0,0,1-2.577,3.122l-3.6,3.334,7.367-.04v4.287Zm-47.138,0v-19.089H-4004v4.172h-9.627v3.215h8.48v4.049h-8.48v3.479h9.978v4.173Zm97.414,0,6.431-14.806h-5.011v2.946h-4.615v-7.225h15.821v3.382l-6.736,15.7Zm-24.073,0v-3.653h-10.083V-402.1l8.561-11.908h5.586l-7.772,11.151h3.866v-3.252h5.1v3.245h2.834l.007,4.282h-2.834v3.653Zm-41.307,0-8.423-10.169v10.169h-5.29v-19.086h4.449l8.424,10.169v-10.169h5.285v19.086Z" transform="translate(4098.675 531.935)" fill="url(#linear-gradient-7)"/>
  </g>
</svg>
