<svg xmlns="http://www.w3.org/2000/svg" xmlns:xlink="http://www.w3.org/1999/xlink" width="240.943" height="93.894" viewBox="0 0 240.943 93.894">
  <defs>
    <linearGradient id="linear-gradient" x1="0.5" x2="0.5" y2="1" gradientUnits="objectBoundingBox">
      <stop offset="0" stop-color="#6a68cf"/>
      <stop offset="1" stop-color="#d39bfa"/>
    </linearGradient>
    <linearGradient id="linear-gradient-4" x1="-1.094" y1="-1.345" x2="2.087" y2="2.184" xlink:href="#linear-gradient"/>
  </defs>
  <g id="connect-icon" transform="translate(-8.833 -31.402)">
    <path id="Path_1269" data-name="Path 1269" d="M250.382,215.887a37.2,37.2,0,0,0-39.132-8.277h0c-.247.091-.495.191-.742.295a37.536,37.536,0,0,0-9.838,5.864l-3.178,2.515V185.9h-1.767a9.819,9.819,0,0,0-4.212,1.7,10.287,10.287,0,0,0-3.4,4.215c-.716,2.094-1.063,22.559-.919,38.585,0,.71,0,1.414.018,2.106h-.13c.018,1.882.53,14.921.81,16.527a38.59,38.59,0,0,0,10.494,19.958c19.516,19.44,52.56,11.531,61.5-14.783A34.08,34.08,0,0,0,261.339,248,38.468,38.468,0,0,0,250.382,215.887Zm-23.628,37.347c-.15-.035-.312-.08-.477-.133l4.124-2.026a2.8,2.8,0,0,1-1.473,2.062,3.3,3.3,0,0,1-2.165.1Zm11.019-10.194a.409.409,0,0,1-.047.082c-1.2,1.7-19.946,10.185-21.908,9.9-1.4-.15-1.767-.739-1.923-3.331a6.849,6.849,0,0,1,1.6-5.526c.065-.074.133-.147.2-.215l.029-.029a20.018,20.018,0,0,1,5.714-3.617c2.289-1.081,4.035-1.882,5.437-2.433,3.534-1.4,4.9-1.214,7.3,0l.28.144c2.448,1.255,3.923,3.473,3.334,5.025Zm12.48,7.475c-.035.118-.074.239-.109.353a27.548,27.548,0,0,1-2.907,6.218c-1.767,2.807-2,2.945-2.736,1.623a26.021,26.021,0,0,0-3.031-3.767L239.2,252.6l-.024-.027,1.7-1.92a10.9,10.9,0,0,0,1.579-2.3v-.024c.96-2.018.7-4.038-.7-7.428a18.851,18.851,0,0,0-3.152-5.134c-3.384-3.888-8.132-5.929-12.645-5.066-1.626.271-2.183.171-2.5-.295a1.651,1.651,0,0,1-.085-.141c-.324-.636-.739-.669-2.144-.371a4.844,4.844,0,0,0-.53.156c-.274.094-.589.218-.928.356-.212.088-.433.183-.654.295h0l-.165-.295-1.452-2.509a1.2,1.2,0,0,0,.2-.4,1.4,1.4,0,0,0,.053-.386,1.384,1.384,0,0,0-1.381-1.384,1.386,1.386,0,1,0,0,2.772.443.443,0,0,0,.088,0l1.1,1.917.1.174.365.627c-.713.348-1.334.689-1.658.884-1.034.672-1.738,1.434-1.381,2.265.174.412-.071.931-.489,1.408a4.685,4.685,0,0,1-.507.486l-.08.065a8.121,8.121,0,0,0-.648.5l-.221.189c-.071.065-.144.13-.215.2-3.853,3.7-4.875,10.866-2.094,16.845,2.218,4.807,4.807,6.73,8.724,6.359l3.1-.221-.074,2.651a11.248,11.248,0,0,0,.813,4.215c.589,1.1.848,1.741.589,2.047s-1.275.265-3.24-.05c-15.107-2.124-24.959-16.765-22.553-31.192.118-.7.262-1.4.439-2.106a27.049,27.049,0,0,1,1.043-3.263c.141-.356.295-.713.448-1.066s.315-.7.48-1.04a24.665,24.665,0,0,1,9.231-10.406c.183-.118.365-.23.548-.342s.295-.174.433-.256.277-.162.415-.242c.2-.118.412-.233.621-.342a36.127,36.127,0,0,1,3.42-1.635c5.914-2.512,15.007-2.144,20.995.813A26.942,26.942,0,0,1,248.65,230.4c.342.689.651,1.393.928,2.106a27.128,27.128,0,0,1,1.046,3.263c.177.7.327,1.4.451,2.106a27.316,27.316,0,0,1-.813,12.636Z" transform="translate(-178.248 -154.498)" fill="url(#linear-gradient)"/>
    <path id="Path_1270" data-name="Path 1270" d="M297.107,384.94a1.981,1.981,0,0,0-.813.174,2.015,2.015,0,0,0,.813,3.856,1.97,1.97,0,0,0,1.063-.309,2.015,2.015,0,0,0-1.063-3.72Zm1.2,2.023a.819.819,0,0,1-1.037-.374.793.793,0,0,1-.1-.386.837.837,0,0,1,.174-.507.941.941,0,0,1,.118-.124.839.839,0,0,1,.536-.2.822.822,0,0,1,.309,1.588Z" transform="translate(-254.45 -294.913)" fill="url(#linear-gradient)"/>
    <path id="Path_1271" data-name="Path 1271" d="M322.206,372.755a.1.1,0,0,0-.041,0,2.015,2.015,0,1,0,0,4.029,1.977,1.977,0,0,0,.781-.159h0a2.012,2.012,0,0,0-.742-3.864Zm.854,2.079a.839.839,0,1,0-.009,0Z" transform="translate(-272.123 -286.315)" fill="url(#linear-gradient)"/>
    <path id="Path_1272" data-name="Path 1272" d="M5.26,8.84a3.662,3.662,0,0,1-2.5-.981L1.18,6.386A3.684,3.684,0,1,1,6.188.982L7.769,2.454a3.682,3.682,0,0,1-2.5,6.386Z" transform="translate(97.156 87.542) rotate(-45)" fill="url(#linear-gradient-4)"/>
    <path id="Path_1273" data-name="Path 1273" d="M19.949,22.427a3.667,3.667,0,0,1-2.5-.981L14.8,19.007a3.684,3.684,0,0,1,5.007-5.4l2.651,2.439a3.682,3.682,0,0,1-2.507,6.386ZM6.333,9.806a3.68,3.68,0,0,1-2.5-.978L1.181,6.389A3.685,3.685,0,0,1,6.189.981L8.839,3.423A3.682,3.682,0,0,1,6.333,9.806Z" transform="translate(114.267 86.889) rotate(-45)" fill="url(#linear-gradient-4)"/>
    <path id="Path_1274" data-name="Path 1274" d="M5.26,8.837a3.679,3.679,0,0,1-2.5-.978L1.18,6.386A3.684,3.684,0,0,1,6.188.982L7.766,2.454a3.682,3.682,0,0,1-2.5,6.386Z" transform="translate(151.36 85.435) rotate(-45)" fill="url(#linear-gradient-4)"/>
    <g id="Icon_awesome-facebook-messenger" data-name="Icon awesome-facebook-messenger" transform="translate(177.678 53.206)">
      <path id="Path_1275" data-name="Path 1275" d="M653,621.14c-20.353,0-36.125,14.874-36.125,34.965a34.166,34.166,0,0,0,11.346,25.866c1.214,1.093.966,1.723,1.178,8.462a2.9,2.9,0,0,0,4.053,2.557c7.69-3.387,7.788-3.655,9.092-3.3,22.279,6.132,46.425-8.123,46.425-33.577C688.959,636.014,673.351,621.14,653,621.14Zm21.69,26.906-10.6,16.789a5.431,5.431,0,0,1-7.5,1.676c-.115-.074-.23-.15-.339-.233l-8.45-6.3a2.18,2.18,0,0,0-2.619,0l-11.39,8.639a1.714,1.714,0,0,1-2.486-2.277l10.6-16.789a5.428,5.428,0,0,1,7.493-1.679c.118.074.233.153.342.236l8.442,6.329a2.174,2.174,0,0,0,2.616,0l11.4-8.63a1.708,1.708,0,0,1,2.483,2.271Z" transform="translate(-616.87 -621.14)" fill="url(#linear-gradient)"/>
    </g>
  </g>
</svg>
