<svg xmlns="http://www.w3.org/2000/svg" xmlns:xlink="http://www.w3.org/1999/xlink" width="154.618" height="116.992" viewBox="0 0 154.618 116.992">
  <defs>
    <linearGradient id="linear-gradient" x2="0.935" y2="0.788" gradientUnits="objectBoundingBox">
      <stop offset="0" stop-color="#6a68cf"/>
      <stop offset="1" stop-color="#d39bfa"/>
    </linearGradient>
    <linearGradient id="linear-gradient-2" x1="0.139" y1="-0.076" x2="0.923" y2="1" xlink:href="#linear-gradient"/>
    <linearGradient id="linear-gradient-3" x1="-0.193" y1="-0.317" x2="1" y2="0.769" xlink:href="#linear-gradient"/>
  </defs>
  <g id="no-codding-icon" transform="translate(0 0)">
    <path id="Union_6" data-name="Union 6" d="M-3645.586-413.243a2.979,2.979,0,0,1-.464-2.637l9.973-33.159a2.977,2.977,0,0,1,3.708-1.993,2.977,2.977,0,0,1,1.993,3.708l-9.965,33.159a2.98,2.98,0,0,1-2.851,2.12h-.006A2.979,2.979,0,0,1-3645.586-413.243Zm27.155.869a2.978,2.978,0,0,1-2.751-1.839,2.977,2.977,0,0,1,.646-3.244l14.212-14.212-14.238-14.6a2.976,2.976,0,0,1,.052-4.21,2.975,2.975,0,0,1,4.21.053l16.229,16.637a2.972,2.972,0,0,1,.844,2.285,2.961,2.961,0,0,1-.871,2.026l-16.229,16.228a2.961,2.961,0,0,1-2.1.875Zm-41.658-1.059-16.229-16.228a2.973,2.973,0,0,1-.867-2.267,2.977,2.977,0,0,1,.842-2.04l16.23-16.638a2.978,2.978,0,0,1,4.21-.051,2.976,2.976,0,0,1,.051,4.209l-14.236,14.6,14.21,14.209a2.976,2.976,0,0,1,.645,3.245,2.976,2.976,0,0,1-2.75,1.837A2.966,2.966,0,0,1-3660.089-413.433Z" transform="translate(3695.514 468.892)" fill="url(#linear-gradient)"/>
    <path id="Union_5" data-name="Union 5" d="M-3588.538-367.5a32.841,32.841,0,0,1,1.906-11.05l0,0h-87.583a2.977,2.977,0,0,1-2.977-2.977v-67a2.977,2.977,0,0,1,2.977-2.977h108a2.977,2.977,0,0,1,2.977,2.977v48.949a32.843,32.843,0,0,1,7.686-.907,33.024,33.024,0,0,1,32.98,32.99,33.021,33.021,0,0,1-32.983,32.983A33.022,33.022,0,0,1-3588.538-367.5Zm19.346-23.33a27.034,27.034,0,0,0-12.425,30.39,27.034,27.034,0,0,0,26.064,19.966v0a27.031,27.031,0,0,0,27.031-27.031,27.031,27.031,0,0,0-27.031-27.031h-.026A26.868,26.868,0,0,0-3569.192-390.826Zm-102.045,6.321h87.434a33.14,33.14,0,0,1,14.61-13.022V-445.55h-102.045Z" transform="translate(3677.191 451.504)" fill="url(#linear-gradient-2)"/>
    <path id="Union_3" data-name="Union 3" d="M-3657.12-427.332l-7.494-7.5-7.493,7.5a2.958,2.958,0,0,1-2.106.874,2.978,2.978,0,0,1-2.751-1.838,2.978,2.978,0,0,1,.646-3.245l7.5-7.5-7.384-7.385a2.978,2.978,0,0,1,0-4.21,2.977,2.977,0,0,1,4.21,0l7.382,7.384,7.382-7.383a2.975,2.975,0,0,1,4.209,0,2.977,2.977,0,0,1,0,4.21l-7.383,7.385,7.495,7.5a2.978,2.978,0,0,1,.646,3.245,2.976,2.976,0,0,1-2.751,1.838h-.007A2.954,2.954,0,0,1-3657.12-427.332Z" transform="translate(3785.963 523.327)" fill="url(#linear-gradient-3)"/>
  </g>
</svg>
