<?xml version="1.0" encoding="utf-8"?>
<!-- Generator: Adobe Illustrator 25.1.0, SVG Export Plug-In . SVG Version: 6.00 Build 0)  -->
<svg version="1.1" id="Layer_1" xmlns="http://www.w3.org/2000/svg" xmlns:xlink="http://www.w3.org/1999/xlink" x="0px" y="0px"
	 viewBox="0 0 280 221.3" style="enable-background:new 0 0 280 221.3;" xml:space="preserve">
<style type="text/css">
	.st0{opacity:0.2;enable-background:new    ;}
	.st1{fill:#FCFCFC;}
	.st2{fill:#FFFFFF;}
	.st3{enable-background:new    ;}
	.st4{fill:#545CC6;}
</style>
<g id="account-icon-1" transform="translate(-136 -381)">
	<g id="Path_1097" class="st0">
		<path class="st1" d="M271,382.7c-25.7-4.3-51-0.3-70,11.7c-56,35.2-80.4,94.3-54.7,153.4c34.9,70.9,169.5,58.4,224.9,40.9
			c18.6-5.9,33-17.9,39.8-33.9C437.3,492.2,356.2,396.9,271,382.7z"/>
	</g>
	<g id="create-account-icon" transform="translate(127.925 480.881)">
		<g id="Path_6">
			<path class="st2" d="M74.1,30.6c-0.2-0.7-0.9-1.2-1.6-1.1s-1.2,0.9-1.1,1.6l0,0c0.1,0.4,0,0.9-0.3,1.2s-0.7,0.5-1.1,0.5H43.6
				c-0.4,0-0.8-0.2-1.1-0.5s-0.4-0.8-0.3-1.2c1.4-6.8,7.3-11.7,14.2-11.8h0.7c4.8,0.1,9.3,2.6,12,6.6c0.5,0.6,1.4,0.6,1.9,0.1
				c0.5-0.4,0.6-1.1,0.3-1.6c-2.2-3.3-5.4-5.7-9.1-6.9c4.1-3,4.9-8.8,1.9-12.9s-8.8-4.9-12.9-1.9s-4.9,8.8-1.9,12.9
				c0.5,0.7,1.2,1.3,1.9,1.9c-6,2-10.4,7-11.7,13.1c-0.5,2.2,0.9,4.4,3.2,4.9l0,0c0.3,0.1,0.6,0.1,0.8,0.1h26.4
				c2.3,0,4.1-1.8,4.1-4.1l0,0C74.1,31.1,74.1,30.9,74.1,30.6L74.1,30.6z M50.3,10.1c0-3.6,2.9-6.5,6.5-6.5c3.6,0,6.5,2.9,6.5,6.5
				c0,3.5-2.7,6.3-6.2,6.5h-0.6C53,16.4,50.3,13.5,50.3,10.1L50.3,10.1z"/>
		</g>
		<g id="Group_3" transform="translate(108.073 0.892)">
			<g id="Rectangle_3">
				<path class="st2" d="M-2.5,0h121.8c6.1,0,11,4.9,11,11v13.9c0,6.1-4.9,11-11,11H-2.5c-6.1,0-11-4.9-11-11V11
					C-13.5,4.9-8.6,0-2.5,0z"/>
			</g>
			<g id="Sign_up" transform="translate(46 8.293)">
				<g class="st3">
					<path class="st4" d="M-11.5,12.8c-0.7-0.2-1.2-0.5-1.6-0.8l0.6-1.3c0.4,0.3,0.8,0.5,1.4,0.7c0.6,0.2,1.1,0.3,1.6,0.3
						c0.7,0,1.2-0.1,1.5-0.3s0.5-0.5,0.5-0.9c0-0.3-0.1-0.5-0.3-0.6C-8,9.8-8.1,9.6-8.4,9.5s-0.7-0.2-1.2-0.3
						c-0.7-0.2-1.3-0.4-1.7-0.5c-0.4-0.2-0.8-0.4-1.1-0.8c-0.3-0.3-0.5-0.8-0.5-1.4c0-0.5,0.1-1,0.4-1.4s0.7-0.7,1.2-1
						c0.6-0.2,1.2-0.4,2-0.4C-8.6,3.8-8.1,3.8-7.5,4c0.5,0.1,1,0.3,1.4,0.6l-0.6,1.3c-0.4-0.2-0.8-0.4-1.2-0.5
						c-0.5-0.2-0.9-0.2-1.3-0.2c-0.7,0-1.2,0.1-1.5,0.3C-11,5.7-11.2,6-11.2,6.4c0,0.3,0.1,0.5,0.3,0.6c0.2,0.2,0.4,0.3,0.7,0.4
						S-9.5,7.6-9,7.8C-8.3,8-7.8,8.1-7.3,8.3C-6.9,8.4-6.5,8.7-6.2,9s0.5,0.8,0.5,1.4c0,0.5-0.1,1-0.4,1.4s-0.7,0.7-1.2,1
						c-0.6,0.2-1.2,0.4-2,0.4C-10.2,13.1-10.8,13-11.5,12.8z"/>
					<path class="st4" d="M-4.2,4.6c-0.2-0.2-0.3-0.4-0.3-0.7s0.1-0.5,0.3-0.7C-4,3.1-3.7,3-3.4,3s0.5,0.1,0.7,0.3S-2.4,3.7-2.4,4
						c0,0.3-0.1,0.5-0.3,0.7S-3.1,5-3.4,5C-3.7,4.9-4,4.8-4.2,4.6z M-4.3,6.1h1.6V13h-1.6V6.1z"/>
					<path class="st4" d="M6.4,6.1V12c0,2.4-1.2,3.7-3.7,3.7c-0.7,0-1.3-0.1-1.9-0.3c-0.6-0.2-1.1-0.4-1.5-0.7L0,13.5
						c0.3,0.3,0.7,0.5,1.2,0.6c0.5,0.2,0.9,0.2,1.4,0.2c0.8,0,1.3-0.2,1.7-0.5s0.5-0.9,0.5-1.6v-0.4c-0.3,0.3-0.6,0.5-1,0.7
						S3,12.7,2.5,12.7c-0.7,0-1.3-0.1-1.8-0.4c-0.5-0.3-1-0.7-1.3-1.2S-1.1,10-1.1,9.3s0.2-1.2,0.5-1.7s0.7-0.9,1.3-1.2
						C1.2,6.1,1.8,6,2.4,6c0.5,0,1,0.1,1.4,0.2c0.4,0.2,0.8,0.4,1,0.8V6.1H6.4z M4.2,10.8c0.4-0.4,0.6-0.8,0.6-1.4
						c0-0.6-0.2-1.1-0.6-1.4C3.8,7.6,3.3,7.5,2.7,7.5S1.6,7.7,1.2,8C0.8,8.4,0.6,8.8,0.6,9.4c0,0.6,0.2,1.1,0.6,1.4
						c0.4,0.4,0.9,0.6,1.5,0.6C3.3,11.3,3.8,11.1,4.2,10.8z"/>
					<path class="st4" d="M14.6,6.7C15.1,7.3,15.4,8,15.4,9v4h-1.6V9.2c0-0.6-0.1-1.1-0.4-1.4c-0.3-0.3-0.7-0.5-1.2-0.5
						c-0.6,0-1.1,0.2-1.4,0.5c-0.3,0.4-0.5,0.9-0.5,1.6V13H8.5V6.1H10V7c0.3-0.3,0.6-0.6,1-0.7C11.5,6.1,11.9,6,12.5,6
						C13.3,6,14,6.2,14.6,6.7z"/>
					<path class="st4" d="M27.7,6.1V13h-1.5v-0.9c-0.3,0.3-0.6,0.6-1,0.7s-0.8,0.3-1.3,0.3c-0.9,0-1.7-0.3-2.2-0.8S21,11,21,10V6
						h1.6v3.7c0,0.6,0.1,1.1,0.4,1.4c0.3,0.3,0.7,0.5,1.2,0.5c0.6,0,1-0.2,1.4-0.5c0.3-0.4,0.5-0.9,0.5-1.6V6.1H27.7z"/>
					<path class="st4" d="M35.5,6.4c0.5,0.3,1,0.7,1.3,1.2s0.5,1.2,0.5,1.9s-0.2,1.3-0.5,1.9c-0.3,0.5-0.7,1-1.3,1.3
						c-0.5,0.3-1.1,0.4-1.8,0.4c-0.9,0-1.7-0.3-2.2-0.9v3.4h-1.6V6.1h1.5V7c0.3-0.3,0.6-0.6,1-0.7C32.8,6.1,33.2,6,33.7,6
						C34.4,6,35,6.1,35.5,6.4z M35,11.1c0.4-0.4,0.6-0.9,0.6-1.6c0-0.7-0.2-1.2-0.6-1.6c-0.4-0.4-0.9-0.6-1.5-0.6
						c-0.4,0-0.7,0.1-1.1,0.3c-0.3,0.2-0.6,0.4-0.7,0.8c-0.1,0.3-0.2,0.7-0.2,1.1s0.1,0.8,0.3,1.1s0.4,0.6,0.7,0.8s0.7,0.3,1.1,0.3
						C34.1,11.7,34.6,11.5,35,11.1z"/>
				</g>
			</g>
		</g>
	</g>
</g>
</svg>
