<svg xmlns="http://www.w3.org/2000/svg" xmlns:xlink="http://www.w3.org/1999/xlink" width="308.074" height="258.112" viewBox="0 0 308.074 258.112">
  <defs>
    <linearGradient id="linear-gradient" x1="-0.37" y1="-0.337" x2="1.016" y2="1.064" gradientUnits="objectBoundingBox">
      <stop offset="0" stop-color="#6a68cf"/>
      <stop offset="1" stop-color="#d39bfa"/>
    </linearGradient>
  </defs>
  <g id="connect-icon-1" transform="translate(-1126.463 -362.593)">
    <path id="Path_1097" data-name="Path 1097" d="M134.994,219.625c-25.735,4.29-50.951.3-70.039-11.711C8.94,172.679-15.478,113.624,10.22,54.477,45.092-16.385,179.711-3.88,235.168,13.547,253.8,19.4,268.2,31.405,274.944,47.447,301.3,110.138,220.192,205.423,134.994,219.625Z" transform="translate(1403.738 620.704) rotate(-172)" fill="#fcfcfc" opacity="0.2"/>
    <g id="connect-icon" transform="translate(1188.702 461.033)">
      <path id="Path_1183" data-name="Path 1183" d="M128.718,187.41A28.923,28.923,0,0,0,98.3,180.979h0l-.578.224a29.084,29.084,0,0,0-7.649,4.56l-2.47,1.956V164.1H86.216a7.438,7.438,0,0,0-3.276,1.337,7.976,7.976,0,0,0-2.648,3.276c-.555,1.628-.822,17.54-.712,30v1.638h-.1c0,1.461.411,11.6.628,12.847a30,30,0,0,0,8.16,15.518c15.174,15.113,40.864,8.966,47.8-11.493a26.446,26.446,0,0,0,1.13-4.827A29.831,29.831,0,0,0,128.718,187.41Zm-18.386,29.037a3.67,3.67,0,0,1-.371-.1l3.213-1.575a2.163,2.163,0,0,1-1.143,1.6,2.564,2.564,0,0,1-1.681.077Zm8.581-7.919a.2.2,0,0,1-.037.067c-.936,1.317-15.5,7.919-17.029,7.689-1.093-.117-1.381-.575-1.5-2.587a5.331,5.331,0,0,1,1.24-4.3c.053-.057.1-.114.157-.167l.023-.023a15.531,15.531,0,0,1,4.443-2.811c1.778-.839,3.136-1.464,4.225-1.889,2.755-1.086,3.814-.946,5.683,0l.217.11C118.225,205.593,119.375,207.318,118.913,208.528Zm9.695,5.813c-.027.09-.057.184-.087.277a21.314,21.314,0,0,1-2.26,4.831c-1.381,2.183-1.551,2.3-2.126,1.264a20.023,20.023,0,0,0-2.357-2.928l-1.765-1.822v-.02l1.337-1.491a8.641,8.641,0,0,0,1.227-1.8v-.017c.745-1.568.542-3.139-.545-5.777a14.6,14.6,0,0,0-2.464-3.988c-2.634-3.032-6.325-4.61-9.835-3.945-1.264.214-1.7.134-1.946-.231-.023-.037-.047-.074-.067-.11-.251-.495-.575-.518-1.671-.287a3.053,3.053,0,0,0-.411.12c-.214.074-.461.167-.722.277-.164.067-.334.14-.508.221h0l-.127-.221-1.127-1.952a.92.92,0,0,0,.154-.314,1.083,1.083,0,0,0,.043-.3,1.078,1.078,0,1,0-1.076,1.076h.07l.859,1.491.077.134.284.488c-.555.271-1.036.535-1.29.7-.8.525-1.337,1.117-1.073,1.762.134.334-.053.725-.381,1.1a3.835,3.835,0,0,1-.391.378l-.064.047a6.351,6.351,0,0,0-.5.394l-.174.147c-.057.05-.114.1-.167.154-3.009,2.878-3.791,8.448-1.628,13.1,1.725,3.734,3.737,5.232,6.783,4.944l2.414-.17-.057,2.066a8.736,8.736,0,0,0,.632,3.276c.451.856.669,1.354.458,1.591s-1,.207-2.527-.04c-11.744-1.648-19.389-13.038-17.534-24.246.094-.548.2-1.093.334-1.638a20.3,20.3,0,0,1,.809-2.537c.107-.277.224-.555.334-.832s.244-.545.371-.806a19.182,19.182,0,0,1,7.181-8.1l.425-.264c.11-.07.224-.134.334-.2l.334-.187c.157-.09.334-.181.481-.264a28.91,28.91,0,0,1,2.674-1.27c4.6-1.956,11.667-1.671,16.32.632a20.93,20.93,0,0,1,9.715,9.651c.267.535.508,1.083.722,1.638a20.94,20.94,0,0,1,.812,2.537c.14.538.254,1.086.351,1.638a21.231,21.231,0,0,1-.645,9.818Z" transform="translate(-79.48 -164.1)" fill="#fff"/>
      <path id="Path_1184" data-name="Path 1184" d="M155.04,300.44a1.541,1.541,0,0,0-.632.134,1.568,1.568,0,0,0,.632,3.009,1.531,1.531,0,0,0,.829-.241,1.564,1.564,0,0,0-.829-2.892Zm.936,1.575a.716.716,0,0,1-.241.047.669.669,0,0,1-.568-.334.645.645,0,0,1,.06-.692.813.813,0,0,1,.09-.1.668.668,0,0,1,.418-.154.642.642,0,0,1,.241,1.237Z" transform="translate(-128.728 -254.862)" fill="#fff"/>
      <path id="Path_1185" data-name="Path 1185" d="M172.422,292.09h-.03a1.568,1.568,0,0,0,0,3.132A1.531,1.531,0,0,0,173,295.1h0a1.565,1.565,0,0,0-.578-3.009Zm.669,1.618a.642.642,0,1,1,.642-.639.642.642,0,0,1-.642.639Z" transform="translate(-140.336 -249.303)" fill="#fff"/>
      <path id="Path_1186" data-name="Path 1186" d="M2.213,4.428A2.173,2.173,0,1,1,2.133.082L4.139,0a2.175,2.175,0,1,1,.171,4.346L2.3,4.428Z" transform="translate(117.868 47.279) rotate(180)" fill="#fff"/>
      <path id="Path_1187" data-name="Path 1187" d="M2.215,5.116A2.173,2.173,0,0,1,2.132.771L6.541.6a2.175,2.175,0,0,1,.171,4.346L2.3,5.116Zm15.438-.6A2.173,2.173,0,1,1,17.569.172L21.979,0a2.175,2.175,0,0,1,.17,4.346l-4.413.17Z" transform="translate(104.836 48.476) rotate(180)" fill="#fff"/>
      <path id="Path_1188" data-name="Path 1188" d="M2.215,4.424A2.173,2.173,0,0,1,2.132.079L4.137,0a2.175,2.175,0,0,1,.17,4.346L2.3,4.424Z" transform="translate(73.96 48.987) rotate(180)" fill="#fff"/>
      <g id="Messenger_pressed" data-name="Messenger pressed" transform="translate(127.445 19.073)">
        <rect id="Rectangle_150-2" data-name="Rectangle 150-2" width="56.151" height="56.151" rx="20.36" fill="#fff"/>
        <path id="Icon_awesome-facebook-messenger" data-name="Icon awesome-facebook-messenger" d="M470.975,259.89c-6.535,0-11.6,4.777-11.6,11.229a10.962,10.962,0,0,0,3.64,8.3c.391.351.311.555.378,2.718a.923.923,0,0,0,1.3.819c2.467-1.086,2.5-1.17,2.918-1.056,7.154,1.966,14.91-2.611,14.91-10.784C482.525,264.667,477.51,259.89,470.975,259.89Zm6.967,8.642-3.41,5.389a1.742,1.742,0,0,1-2.407.542l-.107-.077-2.711-2.029a.7.7,0,0,0-.839,0l-3.657,2.775a.552.552,0,0,1-.8-.732l3.406-5.392a1.742,1.742,0,0,1,2.407-.538,1.207,1.207,0,0,1,.107.074l2.711,2.033a.7.7,0,0,0,.839,0l3.661-2.771a.548.548,0,0,1,.8.729Z" transform="translate(-442.82 -244.87)" fill="url(#linear-gradient)"/>
      </g>
    </g>
  </g>
</svg>
