<?xml version="1.0" encoding="utf-8"?>
<!-- Generator: Adobe Illustrator 25.1.0, SVG Export Plug-In . SVG Version: 6.00 Build 0)  -->
<svg version="1.1" id="Layer_1" xmlns="http://www.w3.org/2000/svg" xmlns:xlink="http://www.w3.org/1999/xlink" x="0px" y="0px"
	 viewBox="0 0 283.8 226.1" style="enable-background:new 0 0 283.8 226.1;" xml:space="preserve">
<style type="text/css">
	.st0{opacity:0.2;fill:#FCFCFC;enable-background:new    ;}
	.st1{fill:#FCFCFC;}
	.st2{fill:#FFFFFF;}
</style>
<path id="Path_1097_1_" class="st0" d="M149.2,222.2c25.8,3.8,50.9-0.6,69.8-12.9c55.4-36.2,78.8-95.7,52-154.4
	C235-15.4,100.6-0.5,45.5,17.9C26.9,24.1,12.7,36.3,6.3,52.5C-19,115.6,63.8,209.5,149.2,222.2z"/>
<g id="start-selling-icon_1_" transform="translate(1528.8 442.968)">
	<path id="Path_1229_1_" class="st1" d="M-1356.6-355.4L-1356.6-355.4c-0.6-0.7-1.5-1.1-2.4-1.1h-15.5c-0.9-4.7-3.2-9-6.6-12.4
		c-6.5-6.4-16.1-8.4-24.6-5.2l-0.5,0.2c-2.2,0.9-4.3,2.1-6.2,3.7l-2,1.6v-19.1h-1.1c-1,0.1-1.9,0.5-2.7,1.1
		c-0.9,0.7-1.7,1.6-2.1,2.7c-0.4,1.3-0.6,26.6-0.6,27.6h-13.2l-1.6-8c-0.3-1.4-1.5-2.4-3-2.4h-13.2c-1.7,0-3.1,1.3-3.1,3
		c0,1.7,1.3,3,3,3.1h10.8l8.6,43.1l0.1,0.2c0,0,0,0.1,0,0.1l0.1,0.2c0,0,0,0.1,0.1,0.1c0,0,0,0.1,0,0.1c0,0,0,0.1,0.1,0.1l0,0.1
		c0,0,0.1,0.1,0.1,0.2l0.1,0.1c0,0.1,0.1,0.1,0.1,0.2l0.1,0.1c0,0,0.1,0.1,0.1,0.1l0,0.1l0.2,0.2l0,0c0.1,0.1,0.1,0.1,0.2,0.2h0
		c0.1,0,0.1,0.1,0.2,0.1l0.1,0l0.2,0.1l0.1,0l0.2,0.1l0.1,0l0.2,0h0.1c0.1,0,0.2,0,0.3,0c0.1,0,0.2,0,0.3,0h63.3c1.4,0,2.7-1,3-2.4
		l7.3-35.1C-1355.8-353.7-1356-354.7-1356.6-355.4z M-1414-354.9c0-0.1,0-0.1,0-0.2c0.1-0.4,0.2-0.9,0.3-1.3c0.2-0.7,0.4-1.4,0.7-2
		c0.1-0.2,0.2-0.5,0.3-0.7c0.1-0.2,0.2-0.5,0.3-0.7c1.3-2.7,3.3-5,5.8-6.5c0.1-0.1,0.2-0.1,0.3-0.2c0.1-0.1,0.2-0.1,0.3-0.2
		c0.1,0,0.2-0.1,0.3-0.1c0.1,0,0.3-0.1,0.4-0.2c0.7-0.4,1.4-0.7,2.2-1c4.3-1.6,9-1.4,13.2,0.5c3.4,1.7,6.2,4.4,7.9,7.8
		c0.2,0.4,0.4,0.9,0.6,1.3c0.3,0.7,0.5,1.4,0.7,2.1c0.1,0.4,0.2,0.9,0.3,1.3c0.5,2.7,0.3,5.4-0.5,8c0,0.1,0,0.1-0.1,0.2
		c-0.4,1.4-1.1,2.7-1.8,3.9c-1.1,1.8-1.2,1.9-1.7,1c-0.6-0.8-1.2-1.6-1.9-2.4l-1.4-1.5l1.1-1.2c0.4-0.4,0.7-0.9,1-1.5
		c0.2-0.5,0.4-1,0.4-1.6c0-0.8-0.3-1.8-0.8-3.1c-0.5-1.2-1.2-2.3-2-3.2c-1.9-2.4-4.9-3.6-8-3.2c-1,0.2-1.4,0.1-1.6-0.2
		c0,0,0,0-0.1-0.1c-0.2-0.4-0.5-0.4-1.4-0.2c-0.1,0-0.2,0.1-0.3,0.1c-0.2,0.1-0.4,0.1-0.6,0.2l-0.4,0.2l-0.1-0.2l-0.9-1.6
		c0.1-0.1,0.1-0.2,0.1-0.2c0-0.1,0-0.2,0-0.2c0-0.2-0.1-0.4-0.2-0.6c-0.2-0.2-0.4-0.3-0.7-0.3c-0.5,0-0.9,0.4-0.9,0.9
		c0,0.5,0.4,0.9,0.9,0.9h0.1l0.7,1.2l0.1,0.1l0.2,0.4c-0.4,0.2-0.8,0.4-1,0.6c-0.7,0.4-1.1,0.9-0.9,1.4c0.1,0.3,0,0.6-0.3,0.9
		c-0.1,0.1-0.2,0.2-0.3,0.3l-0.1,0c-0.1,0.1-0.3,0.2-0.4,0.3l-0.1,0.1l-0.1,0.1c-2.4,2.3-3.1,6.8-1.3,10.6c1.4,3,3,4.2,5.5,4
		l1.9-0.1l0,1.7c0,0.9,0.2,1.8,0.5,2.7c0.4,0.7,0.5,1.1,0.4,1.3c-0.2,0.2-0.8,0.2-2,0C-1409.1-336.9-1415.4-345.6-1414-354.9z
		 M-1402.8-345.5L-1402.8-345.5c-0.9-0.1-1.1-0.5-1.2-2.1c-0.2-1.2,0.2-2.5,1-3.5c0,0,0.1-0.1,0.1-0.1c0,0,0,0,0,0
		c1.1-1,2.3-1.7,3.6-2.3c1.4-0.7,2.5-1.2,3.4-1.5c2.2-0.9,3.1-0.8,4.6,0l0.2,0.1c1.5,0.8,2.5,2.2,2.1,3.2c0,0,0,0,0,0
		C-1389.8-350.7-1401.6-345.4-1402.8-345.5z M-1393.6-346.8c-0.1,0.6-0.4,1-0.9,1.3c-0.4,0.2-0.9,0.2-1.4,0.1c-0.1,0-0.2,0-0.3-0.1
		L-1393.6-346.8z M-1368.7-321.4h-58.4l-5.8-29.1h12.3c0.1,1.2,0.1,2.1,0.2,2.4c0.9,4.8,3.2,9.1,6.6,12.6
		c12.3,12.2,33.1,7.3,38.7-9.3c0.4-1.3,0.7-2.6,0.9-3.9c0.1-0.6,0.1-1.1,0.2-1.7h11.4L-1368.7-321.4z"/>
	<path id="Path_1232_1_" class="st1" d="M-1398.5-350.3c-0.2-0.4-0.6-0.6-1.1-0.6v0c-0.2,0-0.3,0-0.5,0.1c-0.6,0.3-0.9,1.1-0.6,1.7
		c0.2,0.4,0.6,0.7,1.1,0.7c0.2,0,0.5-0.1,0.7-0.2C-1398.4-348.9-1398.2-349.7-1398.5-350.3z M-1398.9-349.6L-1398.9-349.6
		c-0.1,0-0.1,0-0.2,0c-0.2,0-0.4-0.1-0.5-0.3c0-0.1-0.1-0.2-0.1-0.2c0-0.1,0-0.2,0.1-0.3c0,0,0-0.1,0.1-0.1c0.1-0.1,0.2-0.1,0.4-0.1
		c0.3,0,0.5,0.2,0.5,0.5C-1398.5-349.9-1398.7-349.7-1398.9-349.6z"/>
	<path id="Path_1233_1_" class="st1" d="M-1394-352.6c0.1,0.1,0.1,0.2,0.1,0.3c0,0.3-0.2,0.5-0.5,0.5c-0.3,0-0.5-0.2-0.5-0.5
		c0-0.3,0.2-0.5,0.5-0.5c0.1,0,0.2,0,0.3,0.1c-0.2-0.2-0.5-0.4-0.8-0.4h0c-0.7,0-1.3,0.6-1.3,1.3s0.6,1.3,1.3,1.3
		c0.2,0,0.3,0,0.5-0.1c0.2-0.1,0.4-0.2,0.6-0.5c0.1-0.2,0.2-0.5,0.2-0.7C-1393.7-352.2-1393.8-352.4-1394-352.6z"/>
	<path class="st1" d="M-1285.5-328.6l-4.6-16.9c0-0.1,0-0.1,0-0.2c-0.5-1.6-2.1-2.5-3.7-2c-0.4,0.1-0.7,0.3-1,0.5l-16.4,7.3
		c-1.5,0.7-2.1,2.4-1.5,3.9c0.7,1.5,2.4,2.2,3.9,1.6l10.1-4.5c-16.6,35.8-43.8,56.2-81,60.6c-18.6,2-37.5,0.3-55.4-5.1
		c-1.6-0.5-3.2,0.3-3.8,1.8c-0.5,1.6,0.3,3.2,1.8,3.8c13.7,4.2,27.9,6.3,42.2,6.3c5.2,0,10.4-0.3,15.6-0.9
		c18.4-2.2,34.7-8.2,48.7-17.9c15.4-10.7,27.8-26,36.9-45.5l2.4,8.7c0.3,1.3,1.5,2.2,2.9,2.2c0.3,0,0.5,0,0.8-0.1
		C-1286-325.4-1285.1-327-1285.5-328.6z"/>
</g>
<path class="st2" d="M108.4,139.2c3,0,5.5,2.5,5.5,5.5c0,3-2.5,5.5-5.5,5.5s-5.5-2.5-5.5-5.5C102.9,141.7,105.3,139.2,108.4,139.2
	 M108.4,133.4c-6.3,0-11.4,5.1-11.4,11.4s5.1,11.4,11.4,11.4c6.3,0,11.4-5.1,11.4-11.4S114.7,133.4,108.4,133.4L108.4,133.4z"/>
<path class="st2" d="M153.3,139.2c3,0,5.5,2.5,5.5,5.5c0,3-2.5,5.5-5.5,5.5c-3,0-5.5-2.5-5.5-5.5
	C147.8,141.7,150.3,139.2,153.3,139.2 M153.3,133.4c-6.3,0-11.4,5.1-11.4,11.4s5.1,11.4,11.4,11.4s11.4-5.1,11.4-11.4
	S159.6,133.4,153.3,133.4L153.3,133.4z"/>
</svg>
