<svg xmlns="http://www.w3.org/2000/svg" width="308.074" height="258.112" viewBox="0 0 308.074 258.112">
  <g id="template-icon-1" transform="translate(-459.357 -369.589)">
    <path id="Path_1097" data-name="Path 1097" d="M313.166,388.756c-25.735-4.29-50.951-.3-70.039,11.711-56.015,35.235-80.433,94.29-54.735,153.437,34.872,70.862,169.491,58.357,224.948,40.93,18.633-5.856,33.035-17.858,39.776-33.9C479.468,498.243,398.364,402.958,313.166,388.756Z" transform="translate(859.199 1035.815) rotate(-172)" fill="#fcfcfc" opacity="0.2"/>
    <g id="template-icon" transform="translate(433.102 321.666)">
      <rect id="Rectangle_730" data-name="Rectangle 730" width="182.781" height="192.39" rx="31" transform="translate(100.85 70.89)" fill="#fff"/>
      <g id="Group_387" data-name="Group 387" transform="translate(117.776 91.478)">
        <circle id="Ellipse_23" data-name="Ellipse 23" cx="21.654" cy="21.654" r="21.654" fill="#a082e5"/>
        <path id="Icon_material-feedback" data-name="Icon material-feedback" d="M187.326,152.86h-13.2a1.659,1.659,0,0,0-1.638,1.659v14.848l3.3-3.318h11.551A1.659,1.659,0,0,0,189,164.39v-9.883A1.659,1.659,0,0,0,187.326,152.86Zm-5.773,9.9h-1.659V161.1h1.659Zm0-3.318h-1.659v-3.3h1.659Z" transform="translate(-159.703 -139.451)" fill="#fff"/>
      </g>
      <g id="Group_389" data-name="Group 389" transform="translate(117.146 145.429)">
        <circle id="Ellipse_23-2" data-name="Ellipse 23" cx="21.654" cy="21.654" r="21.654" fill="#a082e5"/>
        <g id="thumb_up_alt-24px" data-name="thumb up alt-24px" transform="translate(12.633 9.925)">
          <path id="Path_91" data-name="Path 91" d="M192.254,296.194H170.6V274.54h21.654Z" transform="translate(-170.6 -274.54)" fill="none"/>
          <path id="Path_92" data-name="Path 92" d="M175,295.143h1.8a.9.9,0,0,0,.9-.9v-8.121a.9.9,0,0,0-.9-.9H175Zm17.892-6.424a1.8,1.8,0,0,0,.153-.722v-.975a1.812,1.812,0,0,0-1.8-1.8h-4.977l.829-4.2a.888.888,0,0,0-.07-.593,4.35,4.35,0,0,0-.8-1.1l-.415-.415-5.782,5.786a1.808,1.808,0,0,0-.535,1.282v7.071a2.115,2.115,0,0,0,2.115,2.1h7.316a1.812,1.812,0,0,0,1.551-.875Z" transform="translate(-173.175 -277.098)" fill="#fff"/>
        </g>
      </g>
      <g id="Group_388" data-name="Group 388" transform="translate(117.776 201.516)">
        <circle id="Ellipse_23-3" data-name="Ellipse 23" cx="21.654" cy="21.654" r="21.654" fill="#a082e5"/>
        <path id="Icon_awesome-shopping-cart" data-name="Icon awesome-shopping-cart" d="M187.625,427.471l1.584-6.964a.8.8,0,0,0-.606-.962.868.868,0,0,0-.178-.021H175.274l-.307-1.5a.829.829,0,0,0-.784-.643h-3.438a.8.8,0,0,0-.8.8h0v.535a.8.8,0,0,0,.8.8h2.339l2.352,11.5a1.875,1.875,0,1,0,2.563.693,2.011,2.011,0,0,0-.315-.415H184.7a1.875,1.875,0,1,0,2.654.025,1.941,1.941,0,0,0-.523-.373l.178-.83a.8.8,0,0,0-.606-.962.831.831,0,0,0-.178-.021h-8.983l-.22-1.07h9.817A.8.8,0,0,0,187.625,427.471Z" transform="translate(-158.211 -404.299)" fill="#fff"/>
      </g>
      <path id="Path_1236" data-name="Path 1236" d="M365.41,151.326H287.893a3.733,3.733,0,0,1,0-7.466H365.41a3.733,3.733,0,1,1,0,7.466Z" transform="translate(-107.282 -42.706)" fill="#b3b3b3"/>
      <path id="Path_1237" data-name="Path 1237" d="M365.41,191.085H287.893a3.733,3.733,0,1,1,0-7.465H365.41a3.733,3.733,0,1,1,0,7.465Z" transform="translate(-107.282 -65.975)" fill="#b3b3b3"/>
      <path id="Path_1238" data-name="Path 1238" d="M365.41,284.666H287.893a3.733,3.733,0,1,1,0-7.466H365.41a3.733,3.733,0,1,1,0,7.466Z" transform="translate(-107.282 -120.743)" fill="#b3b3b3"/>
      <path id="Path_1239" data-name="Path 1239" d="M365.41,324.466H287.893a3.733,3.733,0,0,1,0-7.466H365.41a3.733,3.733,0,1,1,0,7.466Z" transform="translate(-107.282 -144.036)" fill="#b3b3b3"/>
      <path id="Path_1240" data-name="Path 1240" d="M365.41,416.636H287.893a3.733,3.733,0,1,1,0-7.465H365.41a3.733,3.733,0,1,1,0,7.466Z" transform="translate(-107.282 -197.978)" fill="#b3b3b3"/>
      <path id="Path_1241" data-name="Path 1241" d="M365.41,456.4H287.893a3.733,3.733,0,0,1,0-7.466H365.41a3.733,3.733,0,1,1,0,7.466Z" transform="translate(-107.282 -221.248)" fill="#b3b3b3"/>
    </g>
  </g>
</svg>
